<svg xmlns="http://www.w3.org/2000/svg" width="30" height="30" viewBox="0 0 30 30">
    <g fill="none" fill-rule="evenodd">
        <circle cx="15" cy="15" r="15" fill="#DDF7E3"/>
        <g fill="#25A541" fill-rule="nonzero" stroke="#25A541" stroke-width=".2">
            <path d="M8.925 3.684c-2.931 0-5.315 2.382-5.315 5.314 0 2.928 2.384 5.315 5.315 5.315 2.932 0 5.315-2.387 5.315-5.315 0-2.932-2.383-5.314-5.315-5.314zm0 9.727c-2.43 0-4.412-1.978-4.412-4.413 0-2.43 1.978-4.412 4.412-4.412 2.435 0 4.413 1.981 4.413 4.412s-1.982 4.413-4.413 4.413z" transform="translate(6 6)"/>
            <path d="M17.455 9.728l-.32-.442c-.15-.207-.155-.49-.003-.7l.312-.446c.247-.35.335-.792.236-1.212-.1-.42-.372-.777-.751-.98l-.48-.257c-.228-.122-.349-.372-.308-.626l.091-.538c.07-.424-.044-.858-.312-1.193-.273-.336-.675-.538-1.102-.557l-.545-.022c-.258-.01-.48-.184-.549-.43l-.158-.52c-.184-.638-.777-1.083-1.444-1.083-.203 0-.405.04-.593.122l-.501.213c-.232.1-.516.037-.681-.15L9.982.5C9.699.184 9.29 0 8.867 0c-.435 0-.848.188-1.135.516l-.354.412c-.165.192-.446.258-.681.162L6.192.884C6.008.811 5.817.77 5.622.77c-.674 0-1.271.453-1.448 1.105l-.144.527c-.066.247-.287.423-.545.438l-.542.033c-.427.022-.828.232-1.093.571-.266.339-.372.777-.295 1.197l.1.534c.047.254-.075.509-.3.634l-.474.265c-.376.21-.645.57-.737.99-.092.42 0 .863.254 1.209l.32.438c.152.207.156.49.004.7l-.313.446c-.246.35-.335.792-.236 1.212.1.42.372.777.752.979l.479.258c.228.121.35.372.309.626l-.092.538c-.07.423.044.858.313 1.193.272.336.674.538 1.101.556l.545.022c.258.011.48.184.55.431l.15.523c.184.637.777 1.083 1.444 1.083.202 0 .405-.04.593-.121l.5-.214c.233-.1.517-.037.682.151l.365.405c.284.317.693.501 1.116.501.435 0 .848-.188 1.135-.516l.357-.412c.166-.192.446-.258.682-.162l.504.206c.184.074.376.114.571.114.674 0 1.27-.453 1.447-1.105l.144-.527c.066-.246.288-.423.545-.438l.545-.033c.432-.026.83-.232 1.094-.57.266-.34.372-.774.295-1.198l-.1-.534c-.047-.254.074-.508.299-.633l.475-.266c.376-.21.645-.57.737-.99.092-.42 0-.862-.255-1.208zm-.626 1.012c-.036.17-.143.31-.294.395l-.475.265c-.564.313-.866.95-.748 1.583l.1.535c.033.173-.012.342-.118.479-.107.136-.262.217-.438.228l-.542.033c-.645.037-1.193.479-1.363 1.102l-.143.523c-.07.26-.31.441-.578.441-.078 0-.155-.014-.229-.044l-.505-.206c-.184-.074-.375-.114-.57-.114-.435 0-.848.188-1.135.515l-.357.41c-.114.132-.277.205-.453.205-.173 0-.332-.07-.446-.198l-.365-.405c-.283-.317-.692-.501-1.12-.501-.206 0-.404.04-.592.121l-.501.213c-.078.034-.155.049-.236.049-.265 0-.5-.178-.575-.431l-.15-.523c-.181-.619-.734-1.054-1.378-1.083l-.545-.022c-.174-.007-.332-.085-.439-.221-.11-.137-.154-.306-.125-.475l.092-.538c.107-.637-.202-1.267-.773-1.573l-.479-.258c-.155-.08-.262-.22-.302-.39-.04-.17-.008-.343.096-.483l.313-.445c.372-.527.368-1.23-.015-1.753l-.32-.439c-.103-.14-.14-.313-.1-.482.037-.17.144-.31.295-.394l.475-.265c.563-.313.866-.95.748-1.584l-.096-.53c-.033-.174.011-.343.117-.48.107-.136.262-.217.439-.227l.541-.034c.645-.037 1.19-.479 1.363-1.101l.144-.527c.07-.261.31-.442.578-.442.078 0 .155.015.229.044l.504.206c.184.074.376.115.571.115.435 0 .847-.188 1.134-.516l.358-.409c.114-.132.276-.206.453-.206.173 0 .332.07.445.199l.365.405c.284.317.692.5 1.12.5.206 0 .405-.04.593-.12l.501-.214c.077-.033.154-.048.235-.048.266 0 .501.177.575.43l.151.524c.18.619.733 1.053 1.378 1.083l.545.022c.173.007.332.084.442.22.11.137.155.306.125.476l-.092.538c-.107.637.203 1.266.774 1.573l.479.257c.154.081.261.221.301.39.041.17.008.343-.091.483l-.313.446c-.372.527-.369 1.23.014 1.753l.32.438c.088.14.126.313.088.482z" transform="translate(6 6)"/>
            <path d="M10.233 7.536L8.259 9.5l-.642-.645c-.176-.176-.46-.176-.637 0-.177.177-.177.46-.003.638l.961.965c.085.084.199.132.32.132.118 0 .233-.048.317-.132l2.295-2.28c.177-.177.177-.46.004-.637-.177-.177-.464-.177-.641-.004z" transform="translate(6 6)"/>
        </g>
    </g>
</svg>
