<svg xmlns="http://www.w3.org/2000/svg" width="240" height="215" viewBox="0 0 240 215">
    <g fill="none" fill-rule="evenodd">
        <ellipse cx="120" cy="204.65" fill="#E2ECF2" fill-rule="nonzero" rx="120" ry="10.35"/>
        <path fill="#EB996E" fill-rule="nonzero" d="M175.013 41.647l-1.49-7.178s-7.137 4.949-8.571 3.12c-5.11-6.515-5.162-18.012-5.162-18.012l8.819-2.632 6.155 3.595s2.107 8.472 2.084 11.629c-.02 2.823 4.583 8.042 4.583 8.042l-6.418 1.436z"/>
        <circle cx="162.953" cy="26.661" r="1" fill="#253239" fill-rule="nonzero"/>
        <path fill="#B56F5D" fill-rule="nonzero" d="M173.784 35.74l-.261-1.272 3.325-2.261s.014.323.06.69c-.525 1.044-3.124 2.843-3.124 2.843z"/>
        <path fill="#253239" fill-rule="nonzero" d="M180.215 30.158c.867-2.075 2.91-12.28 1.256-15.97-1.391-3.16-4.307-5.385-7.723-5.892-3.489-.323-8.735 1.918-12.14 2.237-2.454.23-4.933-1.829-6.181.436-1.137 2.062-.222 7.294 1.401 9.04 1.665 1.79 3.833 2.227 6.186 2.11 1.348-.104 2.686-.314 4-.628.873-.264 1.768-.446 2.674-.543-.127 1.906.446 3.794 1.61 5.309 0 0 .826-3.446 2.909-2.175.871.815 1.082 1.895-.193 3.56-.46.603.67 2.542.977 2.94.51.646 1.14 1.185 1.857 1.588 1.465.253 2.895-.602 3.367-2.012z"/>
        <path fill="#3B5059" fill-rule="nonzero" d="M173.523 34.469c.875-1.812-2.225-8.213-2.225-8.213s-.707 4.11-2.06 5.15c-2.472 1.899-4.009-2.037-7.598-.405 0 0 1.553 5.019 3.283 6.62 1.271 1.177 4.265.026 5.258-.556 1.224-.714 2.348-1.587 3.342-2.596z"/>
        <ellipse cx="165.327" cy="34.915" fill="#FFF" fill-rule="nonzero" rx="1.002" ry="1.278" transform="rotate(-26.592 165.327 34.915)"/>
        <path fill="#F2F2F2" fill-rule="nonzero" d="M173.809 194.567H179.006V198.71H173.809z"/>
        <path fill="#29ABE2" fill-rule="nonzero" d="M179.007 197.13L179.525 101.884 164.387 111.487 165.601 126.061 165.694 126.786 165.694 126.786 173.809 197.13z"/>
        <path fill="#8C6239" fill-rule="nonzero" d="M158.387 204.65v-1.234c0-.362.248-.678.6-.763l14.848-4.137h5.171v5.348c0 .209-.082.409-.23.556-.147.147-.347.23-.555.23h-19.834z"/>
        <path fill="#4F84A8" fill-rule="nonzero" d="M164.387 111.487l1.214 14.574.093.725s4.823 13.661 5.622 17.292c1.592 7.234 1.216 19.667 2.001 24.184 1.375 7.659 4.32 14.728 2.553 22.387-.356 1.26-1.275 2.285-2.488 2.776l.427 3.705h5.197l.519-95.246-15.138 9.603z"/>
        <path fill="#F2F2F2" fill-rule="nonzero" d="M181.98 194.567H187.177V198.71H181.98z"/>
        <path fill="#29ABE2" fill-rule="nonzero" d="M187.177 196.95L184.783 107.852 169.762 108.321 181.98 196.95z"/>
        <path fill="#3C97BF" fill-rule="nonzero" d="M169.762 108.321l2.753 19.436s1.865 14.062 1.88 14.167c.148 1.11 2.077 2.168 2.805 2.888 1.298 1.388 2.36 2.978 3.144 4.71 1.9 3.825 2.913 8.031 2.961 12.303.073 6.674-.507 13.276 3.441 19.09.234.344-1.963-73.063-1.963-73.063l-15.021.47z"/>
        <path fill="#754C24" fill-rule="nonzero" d="M166.557 204.65v-1.234c0-.362.248-.678.6-.763l14.849-4.137h5.17v5.348c0 .209-.082.409-.23.556-.147.147-.346.23-.555.23h-19.834z"/>
        <path fill="#00946B" fill-rule="nonzero" d="M176.477 42.761l-31.962-10.15c-.756 3.325.253 6.64 1.658 9.867l17.598 10.206 12.706-9.923z"/>
        <path fill="#E59170" fill-rule="nonzero" d="M146.173 42.477l-12.726-7.38c-1.318-1.002-2.499-2.173-3.513-3.482l-12.44-16.062-1.105-1.567.002-4.936.004-3.425s.99.5 1.088 1.024c.098.526.194 3.743.194 3.743l2.634 3.215 14.213 13.829c1.643 1.6 3.562 2.888 5.665 3.802l4.327 1.373c-.757 3.324.253 6.639 1.657 9.866z"/>
        <path fill="#00B67A" fill-rule="nonzero" d="M184.21 93.331c-.255-11.967 3.659-17.947 4.165-31.724.282-7.672-.2-14.123-3.086-18.537-2.477-3.79-7.785-3.428-7.797-3.424-1.094.164-2.158.483-3.162.947-8.426 2.111-9.495 9.926-10.213 15.248-.196 2.116-.349 19.413-.29 20.499.836 15.808.485 35.133.56 35.147 12.207.164 19.383-2.036 20.406-2.495.66-3.067-.553-14.273-.582-15.661z"/>
        <path fill="#00A36B" fill-rule="nonzero" d="M177.3 98.441c-4.2-7.49-6.802-15.768-7.642-24.314-.515-4.381 1.303-9.162 6.819-16.031 4.64-5.778 7.716-13.421.905-18.427-1.056.163-2.083.474-3.052.924-8.426 2.111-9.495 9.926-10.213 15.248-.196 2.116-.349 19.413-.29 20.499.836 15.809.485 35.133.56 35.147 12.207.164 19.383-2.036 20.406-2.495.114-.632.175-1.273.182-1.916-2.97-2.485-5.555-5.395-7.675-8.635z"/>
        <path fill="#C06A52" fill-rule="nonzero" d="M74.114 0H116.39500000000001V36.819H74.114z" transform="rotate(180 95.254 18.41)"/>
        <path fill="#B25A4B" d="M74.114 36.819H87.74c-3.013-4.002-2.975-8.623-2.264-13.776C86.979 13.028 103.377 3.114 112.195 0H74.114v36.819z"/>
        <path fill="#C06A52" fill-rule="nonzero" d="M119.249 36.084H120.249V61.405H119.249z" transform="rotate(162.486 119.74 48.745)"/>
        <path fill="#B25A4B" fill-rule="nonzero" d="M70.969 36.252H71.969V61.57300000000001H70.969z" transform="rotate(14.313 71.459 48.912)"/>
        <path fill="#EB996E" fill-rule="nonzero" d="M117.961 30.488c.693.939 2.18 2.985 2.925 3.877.548.657 1.103 1.307 1.665 1.949.694.795 1.4 1.579 2.117 2.352.843.912 1.701 1.812 2.574 2.7.994 1.014 2.003 2.012 3.028 2.994 1.144 1.094 2.307 2.17 3.488 3.227.594.532 1.544 1.373 2.416 2.143 1.318 1.159 3.062 1.71 4.806 1.52.716-.078 1.432-.16 2.146-.248 4.28-.6 8.487-1.628 12.56-3.07l1.013-.342c4.33-1.54 8.74-2.853 13.208-3.931 1.746-.406 3.513-.713 5.294-.917 1.88-.163 3.759.343 5.303 1.43 1.216 1.08.983 2.946.7 4.371-.177 1.66-.635 3.276-1.356 4.78-.878 1.966-2.174 3.716-3.797 5.13-2.03 1.583-5.055 2.002-7.52 2.373-2.626.379-5.27.614-7.922.704-.707.027-1.414.053-2.12.056-2.34.128-4.685.122-7.024-.016-1.789-.08-9.085-.333-13.675-.562-1.924-.096-3.695-1.077-4.798-2.656-7.015-9.767-17.104-25.743-18.343-27.822"/>
        <path fill="#00A36B" fill-rule="nonzero" d="M179.849 53.324c.793-1.522 1.328-3.166 1.582-4.864.283-1.425.321-3.385-.894-4.466-1.543-1.111-3.425-1.648-5.322-1.517-1.78.204-3.548.51-5.293.916-4.478 1.169-8.891 2.57-13.223 4.198l-1.013.341c-1.02.342-4.372 1.333-5.402 1.642-.406.124-.41 1.626-.44 1.975-.146 1.447-.162 2.903-.046 4.352.136 1.149.405 2.277.802 3.363.199.799.49 1.572.864 2.306 3.582.119 7.024.016 7.024.016.707-.003 1.771.07 2.478.041 2.555-.024 5.107-.193 7.643-.507 2.466-.371 5.49-.79 7.52-2.373 1.654-1.289 2.804-3.57 3.72-5.423z"/>
        <path fill="#EB996E" fill-rule="nonzero" d="M115.822 27.49c-.343-1.059-.567-2.152-.67-3.26.023-.163.152-.48.297-.523.335-.092.689.055.86.356.462.74.83 1.536 1.093 2.368.274 1.171.345 2.38.21 3.575.027 1.148-1.894-1.007-1.79-2.516z"/>
        <path fill="#EB996E" fill-rule="nonzero" d="M115.58 31.917s-5.808-1.279-5.803-8.64c0 0-.027-1.49 1.633-.729 1.66.762 6.551 7.94 6.551 7.94l-2.381 1.43z"/>
        <path fill="#FF9A5E" fill-rule="nonzero" d="M25.656 70.06s2.25 1.244.804 2.61c-1.447 1.365-3.722 2.325-4.198 1.196-.475-1.128-2.644-5.491-2.644-5.491l1.506-.726 4.532 2.411z"/>
        <path fill="#FFBD5E" fill-rule="nonzero" d="M19.256 66.591s5.238-2.002 9.337-1.728c1.77-.045 1.99.687 1.99.687.184 1.463-.237 2.937-1.167 4.08-.859.966-2.131 1.458-3.416 1.321 0 0-.665-.062-2.7-1.543-2.035-1.481-2.97-1.072-2.97-1.072l-1.073-1.745z"/>
        <circle cx="18.723" cy="66.434" r="1.004" fill="#6B4147" fill-rule="nonzero"/>
        <path fill="#FF9A5E" fill-rule="nonzero" d="M15.155 73.222s-1.198 2.276.76 2.622c1.96.347 4.388-.1 4.166-1.304-.222-1.205-.805-6.042-.805-6.042l-1.657.22-2.464 4.504z"/>
        <path fill="#FFBD5E" fill-rule="nonzero" d="M18.396 66.938s-5.436 1.376-8.632 3.958c-1.473.981-1.231 1.706-1.231 1.706.69 1.303 1.883 2.267 3.302 2.667 1.257.296 2.58-.034 3.553-.885 0 0 .508-.433 1.32-2.815.812-2.383 1.812-2.586 1.812-2.586l-.124-2.045z"/>
        <path fill="#8F575F" fill-rule="nonzero" d="M19.864 66.488c.762.178 1.426.79.216 2.71.595 1.217 1.065 2.49 1.402 3.802.475 2.01-.038 1.918-.038 1.918s-.364.374-1.15-1.536c-.49-1.262-.85-2.571-1.075-3.907-2.101-.855-1.92-1.74-1.403-2.328.51-.58 1.296-.832 2.048-.659z"/>
        <path fill="#000" fill-rule="nonzero" d="M30.204 87.664l-.04-.01c-.84-.347-1.597-.868-2.22-1.53h-.08l.49-.5.03.03c.567.596 1.252 1.07 2.01 1.39l.04.01-.23.61zm2.67-.09l-.21-.62.04-.01c.784-.254 1.53-.61 2.22-1.06l-.01-.03h.09l.35.52-.03.03c-.75.489-1.56.878-2.41 1.16l-.04.01zm4.36-3.01l-.51-.39.02-.03c.485-.667.929-1.361 1.33-2.08l.06-.12.55.36-.08.14c-.408.72-.855 1.418-1.34 2.09l-.03.03zm-10.97-.47l-.03-.03c-.44-.63-.89-1.33-1.41-2.22l-.02-.03.56-.33.02.03c.51.87.95 1.56 1.39 2.17l.02.029-.53.38zm13.77-3.92l-.53-.381.02-.03c.09-.13.19-.27.3-.4.43-.57.88-1.12 1.34-1.64v-.08l.04.04.04-.05v.08l.45.4-.03.03c-.45.5-.89 1.04-1.32 1.609-.1.13-.2.26-.29.39l-.02.032zm3.46-3.75l-.45-.54v-.101l.04.04c.662-.568 1.368-1.082 2.11-1.54l.04-.02.33.56-.03.02c-.721.437-1.404.936-2.04 1.49v.09zm21.14-.61c-.574 0-1.148-.03-1.72-.09h-.04l.1-.65c.85.092 1.707.113 2.56.06h.04l.03.65h-.04c-.3.02-.62.03-.93.03zm3.51-.351l-.12-.64h.04c.838-.169 1.666-.382 2.48-.64l.04-.01.2.62-.04.01c-.84.265-1.695.482-2.56.65l-.04.01zm-7.79-.15l-.04-.01c-.9-.2-1.79-.45-2.53-.67l-.04-.01.18-.62.04.01c.78.22 1.62.46 2.49.65l.04.01-.14.64zm-12.51-1.35l-.27-.78v-.33l.07.28c.831-.285 1.694-.467 2.57-.54l.05-.01.05.65h-.04c-.827.07-1.643.242-2.43.51v.22zm7.48-.03l-.04-.01c-.79-.21-1.44-.37-2.06-.5-.18-.03-.31-.06-.44-.08l-.04-.01.14-.63c.18.03.33.05.47.08.63.13 1.29.3 2.1.51h.04v.01l.26.07h-.28l-.15.56zm17.85-.01l-.25-.61h.01v-.18l.06.15c.3-.12.61-.25.96-.41.4-.28.79-.56 1.15-.84l.04-.03.39.52-.03.02c-.38.3-.78.59-1.2.89l-.05.02c-.35.16-.69.31-1.05.45l-.03.02zm4.29-3.08l-.46-.47.03-.03c.609-.591 1.17-1.23 1.68-1.91l.02-.03.51.39v.101l-.04-.04c-.52.696-1.091 1.35-1.71 1.96l-.03.03zm3.14-4.26l-.59-.28.02-.04c.368-.759.66-1.553.87-2.37l.01-.04.63.16-.01.04c-.222.863-.53 1.7-.92 2.5l-.01.03zm1.34-5.11l-.65-.05.01-.08c.02-.33.03-.67.03-1.02 0-.48-.02-.98-.07-1.49v-.04l.65-.05v.04c.05.52.07 1.04.07 1.54 0 .38-.01.75-.04 1.11v.04zm-1.02-5.14v-.05c-.14-.75-.31-1.56-.54-2.48h-.01v-.07l.62-.16.01.04c.24.96.42 1.79.56 2.56l.01.04-.65.12zm-1.21-5.04v-.05c-.177-.737-.268-1.492-.27-2.25 0-.12 0-.25.01-.41v-.04l.65.03v.04c-.01.11-.01.23-.01.38.004.711.091 1.42.26 2.11l.01.04-.65.15zm.79-5.13l-.64-.17.01-.04c.2-.74.45-1.55.8-2.48l-.02-.01.05-.05.6.22-.01.04c-.305.8-.568 1.613-.79 2.44v.05zm1.73-4.85l-.6-.26.01-.03c.32-.73.544-1.252.953-2.132l.013-.027.058.027.531.24-.011.03c-.41.89-.634 1.402-.944 2.112l-.01.04zM23.61 79.674l-.026-.033c-.374-.672-.75-1.414-1.176-2.353l-.017-.032.591-.27.017.031c.418.918.785 1.649 1.16 2.301l.018.031-.566.325z"/>
        <circle cx="101.531" cy="73.818" r="4.032" fill="#F2F2F2" fill-rule="nonzero"/>
        <circle cx="116.15" cy="76.67" r="4.032" fill="#F2F2F2" fill-rule="nonzero"/>
        <circle cx="103.671" cy="77.236" r="2.851" fill="#F2F2F2" fill-rule="nonzero"/>
        <circle cx="107.823" cy="75.968" r="2.851" fill="#F2F2F2" fill-rule="nonzero"/>
        <circle cx="104.932" cy="69.954" r="2.851" fill="#F2F2F2" fill-rule="nonzero"/>
        <circle cx="113.012" cy="72.32" r="2.851" fill="#F2F2F2" fill-rule="nonzero"/>
        <circle cx="112.109" cy="76.25" r="2.851" fill="#F2F2F2" fill-rule="nonzero"/>
        <circle cx="109.529" cy="71.519" r="5.702" fill="#F2F2F2" fill-rule="nonzero"/>
        <circle cx="80.771" cy="137.82" r="3.184" fill="#F2F2F2" fill-rule="nonzero"/>
        <circle cx="72.985" cy="143.131" r="2.465" fill="#F2F2F2" fill-rule="nonzero"/>
        <circle cx="83.209" cy="137.351" r="1.743" fill="#F2F2F2" fill-rule="nonzero"/>
        <circle cx="79.565" cy="140.24" r="1.743" fill="#F2F2F2" fill-rule="nonzero"/>
        <circle cx="77.934" cy="140.916" r="1.743" fill="#F2F2F2" fill-rule="nonzero"/>
        <circle cx="77.613" cy="136.03" r="1.743" fill="#F2F2F2" fill-rule="nonzero"/>
        <circle cx="72.937" cy="139.743" r="1.743" fill="#F2F2F2" fill-rule="nonzero"/>
        <circle cx="76.478" cy="142.152" r="2.446" fill="#F2F2F2" fill-rule="nonzero"/>
        <circle cx="76.07" cy="138.679" r="3.485" fill="#F2F2F2" fill-rule="nonzero"/>
        <path fill="#2F2E41" fill-rule="nonzero" d="M111.13 130.337c-.08 0-.154-.041-.195-.11-.358-.572-.255-1.318.244-1.773.768-.701 1.732-1.151 2.763-1.29.308-.598.806-1.077 1.416-1.363.992-.452 2.049-.744 3.132-.864-.041-.346-.02-.697.064-1.035.19-.75.817-1.31 1.584-1.412.646-.108 1.302-.143 1.955-.105.203-.644.667-1.172 1.28-1.456.117-.043.247.015.293.13.045.117-.01.248-.125.296-.454.212-.806.595-.978 1.065.421.032.835.127 1.228.283.514.184.848.682.824 1.227-.03.202-.19.684-1.005.784-.345.09-.711.038-1.017-.145-.306-.182-.526-.48-.61-.826-.069-.297-.073-.605-.013-.904-.583-.028-1.167.005-1.743.1-.594.072-1.083.5-1.231 1.08-.07.285-.087.58-.051.87 1.031-.143 2.082-.002 3.04.407.929.564 1.565 1.505 1.741 2.577-.02.432-.304.807-.715.945-.97.358-2.061.106-2.777-.642-.83-.735-1.413-1.71-1.669-2.79-1.037.114-2.05.392-3 .824-.419.202-.78.506-1.053.882.675-.084 1.361.011 1.988.276.696.323 1.061 1.098.867 1.84-.055.384-.32.704-.688.829-.732.178-1.505.001-2.088-.477-.572-.41-.885-1.093-.824-1.795.005-.037.01-.074.017-.11-.847.144-1.635.53-2.27 1.11-.361.303-.442.828-.188 1.226.032.052.041.114.026.173-.014.06-.052.11-.104.141-.035.021-.076.032-.118.032zm3.145-2.767c-.025.08-.043.164-.053.249-.034.547.217 1.073.664 1.391.46.369 1.061.514 1.639.396.213-.07.365-.258.392-.48.163-.543-.104-1.121-.621-1.35-.641-.258-1.342-.33-2.021-.206zm4.75-2.23c.243.962.769 1.83 1.51 2.49.595.612 1.487.831 2.298.565.247-.071.422-.29.436-.547.038-.733-.98-1.865-1.504-2.152-.865-.364-1.812-.487-2.74-.356zm3.4-2.473c-.055.25-.055.51 0 .761.126.49.518.71 1.13.632.354-.044.576-.19.608-.399-.01-.342-.235-.64-.56-.743-.377-.144-.774-.228-1.177-.25v-.001zM107.833 54.26c-.028 0-.055-.004-.081-.014-.563-.218-1.013-.656-1.248-1.213-.078-.183-.134-.375-.165-.572-.08.01-.156.02-.23.028-1.15.201-2.334-.069-3.285-.749-.56-.492-.882-1.203-.882-1.95-.006-.15-.002-.301.011-.452-.216-.013-.408-.031-.569-.049-1.429-.16-3.14-.591-3.73-1.715-.339-.02-.676-.06-1.009-.12-1.527-.285-2.512-.94-2.774-1.845-.023-.079-.002-.163.055-.222.056-.06.14-.083.22-.064.079.02.142.08.164.159.209.72 1.09 1.274 2.419 1.521.249.046.502.08.755.103l-.012-.067c-.211-1.192 1.22-2.637 2.592-3.084.772-.39 1.714-.091 2.12.672.304.53.262 1.19-.107 1.677-.66.87-2.285 1.28-3.865 1.284.661.83 2.23 1.135 3.223 1.246.164.019.361.037.585.05.338-1.491 1.336-2.748 2.713-3.416 1.005-.506 2.218-.342 3.053.411.213.297.438.934-.447 1.865-1.353 1.188-3.134 1.771-4.928 1.613-.013.138-.017.277-.012.416-.003.619.26 1.21.723 1.62.853.6 1.911.83 2.936.642.085-.01.17-.02.256-.032.011-.255.066-.505.162-.74.23-.56 1.377-1.457 2.066-1.29.21.046.558.226.525.9-.045.91-1.247 1.326-2.276 1.516.024.16.07.315.133.463.186.443.543.792.99.967.104.04.164.147.144.255-.02.109-.115.188-.225.188v-.001zm.526-3.85c-.608.126-1.136.497-1.46 1.026-.064.156-.105.32-.121.489.96-.19 1.806-.541 1.832-1.074.019-.39-.122-.422-.168-.432-.027-.006-.055-.01-.083-.009zm-5.872-1.508c1.644.14 3.275-.39 4.52-1.473.346-.363.696-.881.408-1.283-.707-.568-1.68-.67-2.49-.262-1.216.6-2.108 1.703-2.438 3.017zm-4.522-1.77c1.638.048 3.2-.384 3.748-1.105.265-.35.289-.825.06-1.199-.329-.532-1.01-.723-1.567-.438-1.165.38-2.448 1.64-2.284 2.57.01.058.025.116.043.173zM60.047 98.587c-.123 0-.224-.097-.229-.219-.005-.122.088-.227.21-.237.9-.078 1.394-.973 1.645-1.678-.258-.067-.506-.168-.737-.3-.814-.343-1.285-1.2-1.14-2.07.212-.612.708-1.082 1.33-1.259.36-.088.738.038.973.325.63.731.45 1.883.163 2.942.388.03.778-.016 1.148-.134.499-.162.936-.475 1.25-.894-.268-.168-.494-.395-.66-.663-.457-.861-.658-1.835-.58-2.806.047-.463.347-.861.778-1.035.392-.158.839-.083 1.157.195.502.523.721 1.256.589 1.969-.048.754-.258 1.488-.616 2.153.206.072.426.088.64.045.822-.253 1.546-.754 2.072-1.434-.385-.518-1.203-1.971-.633-2.866.282-.444.794-.686 1.316-.623.366.075.645.375.692.746.11.976-.173 1.955-.788 2.721.48.408 1.039.711 1.642.89.395.143 1.62.414 2.065-.204.075-.1.216-.121.317-.048s.126.213.055.316c-.74 1.024-2.574.372-2.592.366-.649-.195-1.25-.52-1.77-.956-.582.734-1.376 1.27-2.275 1.538-.334.067-.68.035-.996-.094-.375.528-.91.92-1.525 1.12-.458.147-.942.196-1.42.144-.283.83-.882 1.948-2.061 2.05h-.02zm1.313-5.331c-.047 0-.093.005-.138.016-.457.143-.821.49-.987.94-.188.636.356 1.215.929 1.544.202.115.418.203.644.26.177-.635.502-1.921-.056-2.569-.095-.12-.239-.19-.392-.191zm3.257-2.321c-.086 0-.171.017-.251.049-.274.112-.464.366-.493.66-.066.874.115 1.75.522 2.525.13.209.307.384.518.512.335-.614.53-1.294.574-1.991.114-.567-.044-1.155-.429-1.586-.122-.108-.278-.168-.44-.17zm3.919-.496c-.302.016-.577.176-.743.428-.345.54.083 1.584.535 2.237.498-.647.727-1.462.638-2.274-.011-.187-.146-.343-.329-.383-.033-.006-.067-.008-.101-.008z"/>
        <path fill="#FFBD5E" fill-rule="nonzero" d="M80.513 92.011c.561-.02 1.006-.48 1.006-1.042 0-.561-.445-1.022-1.006-1.042-.561.02-1.006.48-1.006 1.042s.445 1.022 1.006 1.042zM67.035 82.174c.561-.02 1.006-.481 1.006-1.043 0-.561-.445-1.022-1.006-1.042-.56.02-1.006.48-1.006 1.042s.445 1.023 1.006 1.043zM76.478 62.256c.562-.02 1.007-.48 1.007-1.042s-.445-1.023-1.007-1.042c-.562.02-1.007.48-1.007 1.042s.445 1.023 1.007 1.042zM84.952 49.002c.561-.019 1.007-.48 1.007-1.042s-.446-1.023-1.007-1.042c-.562.02-1.008.48-1.008 1.042s.446 1.023 1.008 1.042zM91.11 72.561c.562-.019 1.008-.48 1.008-1.042s-.446-1.023-1.007-1.042c-.562.02-1.008.48-1.008 1.042s.446 1.023 1.008 1.042zM100.82 88.234c.56-.02 1.006-.48 1.006-1.042 0-.563-.445-1.023-1.007-1.042-.562.019-1.007.48-1.007 1.041 0 .563.445 1.023 1.007 1.043zM100.502 58.793c.561-.02 1.006-.48 1.006-1.042 0-.561-.445-1.022-1.006-1.042-.56.02-1.006.48-1.006 1.042s.445 1.022 1.006 1.042zM82.678 107.42c.562-.02 1.008-.48 1.008-1.042s-.446-1.023-1.008-1.042c-.561.02-1.007.48-1.007 1.042s.446 1.023 1.007 1.042zM123.499 92.011c.561-.02 1.006-.48 1.006-1.042 0-.561-.445-1.022-1.006-1.042-.561.02-1.006.48-1.006 1.042s.445 1.022 1.006 1.042zM116.39 62.67c.561-.02 1.007-.48 1.007-1.043 0-.562-.446-1.023-1.008-1.042-.561.02-1.007.48-1.007 1.042s.446 1.023 1.007 1.042zM98.577 101.48c.562-.02 1.006-.48 1.006-1.042s-.444-1.022-1.006-1.042c-.56.02-1.005.48-1.005 1.042 0 .561.444 1.022 1.005 1.042zM116.167 99.343c.561-.019 1.007-.48 1.007-1.042s-.446-1.023-1.007-1.042c-.562.02-1.008.48-1.008 1.042s.446 1.023 1.008 1.042zM76.451 123.042c.562-.02 1.006-.48 1.006-1.042 0-.561-.444-1.022-1.006-1.042-.56.02-1.005.48-1.005 1.042s.444 1.023 1.005 1.042zM94.597 137.48c.562-.02 1.008-.48 1.008-1.042s-.446-1.023-1.008-1.042c-.561.02-1.007.48-1.007 1.042s.446 1.023 1.007 1.042zM87.38 126.667c.561-.02 1.006-.48 1.006-1.042 0-.561-.445-1.022-1.006-1.042-.561.02-1.006.48-1.006 1.042s.445 1.022 1.006 1.042zM59.967 163.363c.562-.02 1.008-.48 1.008-1.042s-.446-1.023-1.008-1.042c-.561.019-1.007.48-1.007 1.042s.446 1.023 1.007 1.042zM69.213 134.233c.561-.02 1.006-.48 1.006-1.042s-.445-1.022-1.006-1.042c-.561.02-1.006.48-1.006 1.042 0 .561.445 1.022 1.006 1.042zM58.22 115.319c.56-.02 1.006-.48 1.006-1.042s-.445-1.023-1.007-1.042c-.562.019-1.007.48-1.007 1.042s.445 1.023 1.007 1.042zM104.454 116.991c.561-.02 1.006-.48 1.006-1.042 0-.561-.445-1.022-1.006-1.042-.561.02-1.006.48-1.006 1.042s.445 1.022 1.006 1.042zM100.502 39.173c.562-.02 1.008-.48 1.008-1.042s-.446-1.023-1.008-1.042c-.561.019-1.007.48-1.007 1.042s.446 1.023 1.007 1.042zM110.948 142.552c.562-.02 1.008-.48 1.008-1.042 0-.563-.446-1.023-1.008-1.042-.561.019-1.007.48-1.007 1.042s.446 1.022 1.007 1.042zM126.748 112.538c.561-.02 1.007-.48 1.007-1.042s-.446-1.023-1.007-1.042c-.562.019-1.008.48-1.008 1.042s.446 1.023 1.008 1.042zM111.64 157.033c.562-.019 1.007-.48 1.007-1.042s-.445-1.023-1.007-1.042c-.562.02-1.007.48-1.007 1.042s.445 1.023 1.007 1.042zM82.678 155.157c.562-.02 1.006-.48 1.006-1.042s-.444-1.023-1.005-1.042c-.562.02-1.006.48-1.006 1.042 0 .561.444 1.022 1.005 1.042z"/>
        <path d="M0 0H240V215H0z"/>
    </g>
</svg>
