<svg width="24" height="25" viewBox="0 0 24 25" fill="none" xmlns="http://www.w3.org/2000/svg">
    <path d="M19.786 17.027a.75.75 0 0 0 0-1.5v1.5zM4.2 15.527a.75.75 0 0 0 0 1.5v-1.5zm2.338-5.851h-.75.75zm10.91 0h.75-.75zm-4.106 9.902.657.36a.75.75 0 0 0-.657-1.11v.75zm-2.697 0v-.75a.75.75 0 0 0-.657 1.11l.657-.36zm9.141-4.05H4.2v1.5h15.586v-1.5zM4.2 17.027c1.745 0 3.088-1.486 3.088-3.226h-1.5c0 .994-.75 1.725-1.588 1.725v1.5zm3.088-3.226V9.676h-1.5v4.126h1.5zm0-4.126c0-2.817 2.146-5.026 4.705-5.026v-1.5c-3.467 0-6.205 2.963-6.205 6.526h1.5zm4.705-5.026c2.559 0 4.705 2.21 4.705 5.026h1.5c0-3.563-2.738-6.526-6.205-6.526v1.5zm4.705 5.026v4.126h1.5V9.676h-1.5zm0 4.126c0 1.74 1.343 3.225 3.088 3.225v-1.5c-.837 0-1.588-.731-1.588-1.725h-1.5zm-4.014 5.416a.795.795 0 0 1-.69.432v1.5c.844 0 1.602-.476 2.005-1.212l-1.315-.72zm-.69.432a.796.796 0 0 1-.69-.432l-1.316.72a2.294 2.294 0 0 0 2.006 1.212v-1.5zm-1.349.678h2.697v-1.5h-2.697v1.5z" fill="#25A541"/>
</svg>
